<svg version="1.1" xmlns="http://www.w3.org/2000/svg" viewBox="0 0 512 512"><g><path d="M512,127.984c-15.18,5.969-38.008,8.641-54.125,7.203c9.234-6.531,32.688-25.64,38.125-55.187   c-24.055,15.719-57.742,22.266-72.133,22.031C406.234,88.281,384.102,80,360,80c-57.438,0-104,46.547-104,103.984   c0,5.406,0.539,10.688,1.336,15.875C215.883,199.109,123.695,183.031,48,95.984c-41.328,70.672,9.398,114.641,32,134.047   c-20.664,11.297-48-13.594-48-13.594s-1.328,83.875,84.945,100.938c-14.609,10.938-40.281,9.953-52.945,1.953   c17.461,67.938,91.148,71.828,96,71.828c-44.656,33-86,42.156-144,40.828c50.336,38,109.023,47.391,160,48   c40.047,0.469,76.813-7.781,105.961-19.906C403.289,409.594,464,303.375,464,183.984c0-3.281-0.195-6.5-0.492-9.703   C485.961,165.844,502.133,146.875,512,127.984z"/></g></svg>